<?xml version="1.0" encoding="utf-8"?>
<svg xmlns="http://www.w3.org/2000/svg" width="1280" height="420" viewBox="0 0 1280 420" preserveAspectRatio="none" xmlns:bx="https://boxy-svg.com"><defs><bx:export><bx:file format="svg"/></bx:export></defs><path fill="#0A0844" d="M 739.559 120.966 C 740.7 120.845 741.849 120.774 742.997 120.757 C 796.026 120.131 827.939 161.625 827.88 212.315 C 827.819 263.227 796.187 301.437 744.346 301.378 C 719.911 301.35 706.261 292.115 689.971 275.406 C 689.725 289.635 690.466 307.29 690.536 321.938 L 690.635 380.586 C 682.573 377.755 659.999 365.426 651.535 361.032 L 651.699 124.217 C 664.378 123.831 677.97 123.931 690.729 123.781 C 690.633 131.022 690.571 138.261 690.547 145.501 C 706.315 129.491 717.358 122.959 739.559 120.966 Z M 744.046 263.673 C 776.968 259.244 791.353 233.026 786.998 201.098 C 782.671 169.39 760.388 157.23 731.344 158.721 C 719.731 160.512 704.402 166.94 698.449 177.483 C 675.107 218.838 694.552 266.756 744.046 263.673 Z" style=""/><path fill="#0A0844" d="M 992.321 120.941 C 994.403 120.71 996.495 120.6 998.59 120.615 C 1022.99 120.842 1034.99 128.975 1051.35 145.72 C 1052.03 139.129 1051.84 130.979 1051.88 124.245 C 1064.01 123.724 1078.36 123.934 1090.66 123.84 C 1090.2 182.514 1090.19 241.19 1090.65 299.864 C 1077.67 299.61 1064.29 299.746 1051.28 299.693 C 1051.63 290.896 1051.94 284.676 1051.14 275.957 L 1043.61 284.644 C 1017.57 307.521 973.487 306.208 946.936 284.744 C 909.218 254.253 904.516 188.421 934.265 150.731 C 949.263 131.728 969.201 123.451 992.321 120.941 Z M 1008.46 264.28 C 1022.9 261.418 1036.73 256.109 1044.51 242.74 C 1066.37 205.164 1047.76 156.485 1001.44 158.816 C 936.175 163.994 941.134 266.433 1008.46 264.28 Z" style=""/><path d="M 167.437 29.091 C 165.171 40.133 166.382 91.804 166.485 105.705 L 166.243 174.096 C 184.591 175.679 209.852 173.959 229.319 174.799 L 229.339 258.72 C 229.324 320.862 233.706 360.451 166.266 388.391 C 165.543 374.866 165.501 355.3 165.893 341.738 C 166.596 324.038 166.28 304.516 166.323 286.675 C 154.136 285.177 141.17 287.487 129.461 283.388 C 117.482 279.195 108.126 266.135 107.56 253.269 C 106.518 229.578 106.925 205.59 106.891 181.847 C 106.852 156.795 106.515 131.57 107.358 106.545 C 107.541 101.157 110.408 86.905 112.357 82.38 C 124.482 54.234 141.709 40.971 167.437 29.091 Z" style="fill: rgb(174, 62, 201);"/><path fill="#0A0844" d="M 574.829 68.339 C 588.135 67.801 603.226 67.997 616.58 68.096 C 616.247 81.124 616.469 95.179 616.471 108.289 C 616.538 137.251 617.246 165.992 617.099 195.234 C 617.922 226.094 610.632 254.993 588.204 277.053 C 570.026 294.989 546.002 302.555 521.117 301.698 C 458.983 299.556 424.914 257.496 426.849 196.06 C 428.177 153.89 426.327 110.272 427.145 68.374 C 440.074 67.612 456.026 68.019 469.111 68.103 L 469.096 69.267 C 468.702 99.556 468.987 130.138 469.043 160.456 C 469.81 180.13 467.202 200.094 470.383 219.579 C 479.756 276.998 563.951 277.097 573.209 220.045 C 576.058 202.489 574.619 181.389 574.592 163.233 C 574.511 131.601 574.59 99.971 574.829 68.339 Z" style=""/><path fill="#0A0844" d="M 0.224 174.866 C 20.237 174.296 45.306 174.595 65.317 175.071 L 65.328 244.815 C 65.312 257.335 64.634 279.015 66.859 290.463 C 68.517 298.9 72.053 306.839 77.197 313.666 C 89.291 329.802 109.676 339.405 129.367 340.538 C 141.805 341.253 153.375 339.927 165.893 341.738 C 165.501 355.3 165.543 374.866 166.266 388.391 C 166.425 391.888 166.59 393.558 164.728 395.978 C 163.471 396.133 160.505 396.441 159.338 396.377 C 136.283 395.095 83.525 398.855 63.962 394.005 C 49.202 390.285 35.715 382.543 24.952 371.607 C 13.86 360.277 6.08 346.031 2.477 330.46 C -1.107 315.143 0.262 286.618 0.234 269.617 C 0.064 238.033 0.061 206.448 0.224 174.866 Z" style=""/><path fill="#0A0844" d="M 1112.06 124.089 L 1156.98 124.392 C 1169.4 141.761 1182.9 164.283 1195.17 180.499 C 1206.4 167.149 1220.72 140.809 1233.51 125.038 C 1247.8 124.237 1264.47 124.596 1278.91 124.575 C 1260.13 153.524 1235.7 184.176 1216.55 213.647 C 1235.53 239.663 1255.48 265.64 1275.11 291.182 C 1277.02 293.677 1278.38 295.205 1280 297.974 L 1279.41 299.281 L 1233.66 299.088 C 1221.91 281.981 1206.83 258.214 1194.45 242.407 C 1183.85 255.146 1165.35 284.274 1154.25 299.358 L 1109 299.37 C 1114.33 291.181 1122.6 280.532 1128.43 272.389 C 1142.98 251.978 1157.67 231.682 1172.54 211.506 C 1153.56 183.5 1129.92 152.21 1112.06 124.089 Z" style=""/><path fill="#0A0844" d="M 272.788 175.081 C 291.872 174.027 318.812 174.887 338.468 174.91 C 338.502 175.316 338.53 175.723 338.552 176.127 C 339.734 198.678 339.467 225.929 338.89 248.649 C 337.703 295.447 347.445 332.96 314.039 371.219 C 301.012 384.696 288.855 390.224 271.561 395.189 L 271.362 231.301 C 271.3 214.96 271.038 193.861 271.389 177.047 C 271.942 176.269 272.409 175.613 272.788 175.081 Z" style=""/><path fill="#0A0844" d="M 171.438 20.721 C 190.812 19.716 260.258 19.404 276.304 23.666 C 289.3 27.219 301.267 33.896 311.201 43.136 C 325.962 56.762 337.365 79.151 338.155 99.509 C 338.224 101.483 338.255 103.459 338.246 105.434 L 225.239 105.319 C 209.264 105.303 181.843 104.444 166.485 105.705 C 166.382 91.804 165.171 40.133 167.437 29.091 C 168.719 26.029 169.661 23.558 171.438 20.721 Z" style=""/><path fill="#0A0844" d="M 890.959 37.564 L 892.238 37.913 C 894.203 46.943 892.678 94.085 892.684 105.916 L 892.809 299.426 L 855.262 299.343 C 854.142 299.072 854.493 299.12 853.507 298.276 L 853.683 53.278 C 862.656 48.279 880.718 41.629 890.959 37.564 Z" style=""/><path fill="#0A0844" d="M 65.058 21.626 L 65.539 22.104 C 66.389 25.979 65.924 43.845 65.886 48.703 L 65.45 105.299 L 0.899 105.503 L 0.087 103.92 C -0.364 66.255 29.077 29.525 65.058 21.626 Z" style=""/></svg>